<svg height="512pt" viewBox="0 -27 512.001 512" width="512pt" xmlns="http://www.w3.org/2000/svg"><path d="m173.992188 432.835938c0-31.164063-25.261719-56.425782-56.425782-56.425782-31.164062 0-56.429687 25.261719-56.429687 56.425782zm0 0" fill="#2db37a"/><path d="m310.324219 432.835938c0-43.101563 34.941406-78.046876 78.046875-78.046876 43.105468 0 78.046875 34.945313 78.046875 78.046876zm0 0" fill="#cbd359"/><path d="m374.402344 356.042969c36.441406 6.582031 64.078125 38.460937 64.078125 76.800781h27.941406c0-43.109375-34.941406-78.046875-78.050781-78.046875-4.769532-.003906-9.433594.421875-13.96875 1.246094zm0 0" fill="#bec121"/><path d="m494.332031 432.835938c0-22.410157-18.167969-40.578126-40.582031-40.578126-22.410156 0-40.578125 18.167969-40.578125 40.578126zm0 0" fill="#2db37a"/><path d="m504.386719 440.449219h-206.828125c-4.203125 0-7.609375-3.40625-7.609375-7.613281 0-4.203126 3.40625-7.609376 7.609375-7.609376h206.832031c4.203125 0 7.609375 3.40625 7.609375 7.609376 0 4.203124-3.40625 7.613281-7.613281 7.613281zm0 0" fill="#2db37a"/><path d="m199.355469 440.449219h-145.777344c-4.203125 0-7.609375-3.40625-7.609375-7.613281 0-4.203126 3.40625-7.609376 7.609375-7.609376h145.777344c4.203125 0 7.609375 3.40625 7.609375 7.609376 0 4.203124-3.40625 7.613281-7.609375 7.613281zm0 0" fill="#65efa7"/><path d="m504.214844 132.128906c0 72.972656-59.15625 132.128906-132.128906 132.128906-72.972657 0-132.125-59.15625-132.125-132.128906s59.152343-132.128906 132.125-132.128906c72.972656 0 132.128906 59.15625 132.128906 132.128906zm0 0" fill="#3ad391"/><path d="m357.40625.8125c4.816406-.539062 9.71875-.8125 14.679688-.8125 72.976562 0 132.132812 59.15625 132.132812 132.132812 0 72.964844-59.15625 132.121094-132.132812 132.121094-4.960938 0-9.863282-.269531-14.679688-.8125 66.066406-7.292968 117.449219-63.308594 117.449219-131.308594 0-68.011718-51.382813-124.015624-117.449219-131.320312zm0 0" fill="#2db37a"/><path d="m425.128906 151.640625c-2.972656-2.972656-7.789062-2.972656-10.765625 0l-34.660156 34.660156v-110.464843c0-4.207032-3.40625-7.613282-7.609375-7.613282-4.207031 0-7.613281 3.40625-7.613281 7.613282v71.355468l-35.28125-35.28125c-2.972657-2.96875-7.792969-2.96875-10.765625 0-2.96875 2.972656-2.96875 7.792969 0 10.765625l46.046875 46.042969v282.105469c0 4.203125 3.40625 7.609375 7.613281 7.609375 4.203125 0 7.609375-3.40625 7.609375-7.609375v-242.996094l45.425781-45.425781c2.972656-2.972656 2.972656-7.789063 0-10.761719zm0 0" fill="#c87d5b"/><path d="m336.632812 248.375c0-72.394531-39.203124-131.082031-87.566406-131.082031-48.363281 0-87.566406 58.6875-87.566406 131.082031 0 72.398438 39.203125 131.085938 87.566406 131.085938 48.363282 0 87.566406-58.6875 87.566406-131.085938zm0 0" fill="#cbd359"/><path d="m336.632812 248.375c0 72.398438-39.203124 131.089844-87.566406 131.089844-3.800781 0-7.542968-.367188-11.21875-1.066406 43.066406-8.246094 76.347656-63.316407 76.347656-130.023438 0-66.699219-33.28125-121.769531-76.347656-130.015625 3.675782-.699219 7.417969-1.066406 11.21875-1.066406 48.363282 0 87.566406 58.691406 87.566406 131.082031zm0 0" fill="#bec121"/><path d="m305.015625 252.496094c-2.972656-2.972656-7.789063-2.972656-10.761719 0l-39.835937 39.832031v-92.367187c0-4.203126-3.40625-7.609376-7.609375-7.609376-4.207032 0-7.613282 3.40625-7.613282 7.609376v53.277343l-29.773437-29.777343c-2.976563-2.96875-7.792969-2.96875-10.765625 0-2.972656 2.972656-2.972656 7.792968 0 10.765624l40.539062 40.539063v176.058594c0 4.203125 3.40625 7.609375 7.613282 7.609375 4.203125 0 7.609375-3.40625 7.609375-7.609375v-136.964844l50.601562-50.597656c2.96875-2.972657 2.96875-7.792969-.003906-10.765625zm0 0" fill="#a46244"/><path d="m220.59375 165.390625c0-91.1875-49.382812-165.109375-110.296875-165.109375s-110.296875 73.921875-110.296875 165.109375 49.382812 165.109375 110.296875 165.109375 110.296875-73.921875 110.296875-165.109375zm0 0" fill="#3ad391"/><path d="m220.59375 165.386719c0 91.195312-49.378906 165.117187-110.296875 165.117187-4.789063 0-9.5-.460937-14.128906-1.34375 54.246093-10.386718 96.164062-79.75 96.164062-163.773437 0-84.011719-41.917969-153.375-96.164062-163.761719 4.628906-.882812 9.339843-1.34375 14.128906-1.34375 60.917969 0 110.296875 73.925781 110.296875 165.105469zm0 0" fill="#2db37a"/><path d="m179.375 171.976562c-2.972656-2.972656-7.789062-2.972656-10.765625 0l-53.546875 53.546876v-121.113282c0-4.203125-3.40625-7.609375-7.609375-7.609375-4.207031 0-7.613281 3.40625-7.613281 7.609375v71.875l-40.878906-40.878906c-2.972657-2.972656-7.792969-2.972656-10.765626 0-2.972656 2.972656-2.972656 7.792969 0 10.765625l51.644532 51.644531v253.007813c0 4.203125 3.40625 7.609375 7.609375 7.609375s7.613281-3.40625 7.613281-7.609375v-203.773438l64.308594-64.308593c2.976562-2.972657 2.976562-7.792969.003906-10.765626zm0 0" fill="#c87d5b"/></svg>